<?xml version="1.0" encoding="UTF-8" standalone="no"?>
<svg
   viewBox="0 0 220 90"
   width="44mm"
   height="18mm"
   version="1.1"
   id="svg20"
   sodipodi:docname="label-bambulab-default.svg"
   xml:space="preserve"
   inkscape:version="1.3.2 (091e20e, 2023-11-25)"
   xmlns:inkscape="http://www.inkscape.org/namespaces/inkscape"
   xmlns:sodipodi="http://sodipodi.sourceforge.net/DTD/sodipodi-0.dtd"
   xmlns="http://www.w3.org/2000/svg"
   xmlns:svg="http://www.w3.org/2000/svg"><defs
     id="defs20" /><sodipodi:namedview
     id="namedview20"
     pagecolor="#ffffff"
     bordercolor="#000000"
     borderopacity="0.25"
     inkscape:showpageshadow="2"
     inkscape:pageopacity="0.0"
     inkscape:pagecheckerboard="0"
     inkscape:deskcolor="#d1d1d1"
     inkscape:zoom="3.4506811"
     inkscape:cx="93.170012"
     inkscape:cy="66.508609"
     inkscape:window-width="2416"
     inkscape:window-height="1212"
     inkscape:window-x="409"
     inkscape:window-y="30"
     inkscape:window-maximized="0"
     inkscape:current-layer="svg20"
     inkscape:document-units="mm"
     showgrid="true"><inkscape:grid
       id="grid3"
       units="mm"
       originx="0"
       originy="0"
       spacingx="5.0000001"
       spacingy="5.0000001"
       empcolor="#0099e5"
       empopacity="0.30196078"
       color="#0099e5"
       opacity="0.14901961"
       empspacing="5"
       dotted="false"
       gridanglex="30"
       gridanglez="30"
       visible="true" /></sodipodi:namedview><!-- Pill background --><rect
     x="0.91424441"
     y="0.91424441"
     width="217.8486"
     height="88.171509"
     rx="44.000004"
     ry="44"
     fill="#ffffff"
     stroke="#d9d9d9"
     stroke-width="0.828489"
     id="rect1" /><!-- Bambu-style logo mark (two vertical bars + flag) --><!-- "PLA Basic" header --><text
     x="19.062078"
     y="26.566624"
     font-family="Arial, Helvetica, sans-serif"
     font-size="18px"
     font-weight="700"
     fill="#111111"
     id="text3"
     style="font-size:15.875px"
     inkscape:label="material"
     data-label="material">PLA Basic</text><!-- Color swatch circle --><!-- Color name --><text
     x="19.316982"
     y="49.294697"
     font-family="Arial, Helvetica, sans-serif"
     font-size="14px"
     font-weight="400"
     fill="#111111"
     id="text4"
     style="font-size:15.875px"
     inkscape:label="color_name"
     data-label="color_name">Maroon Red</text><text
     x="36.140476"
     y="71.837425"
     font-family="Arial, Helvetica, sans-serif"
     font-size="14px"
     font-weight="400"
     fill="#111111"
     id="text4-9"
     style="font-size:10.5833px;text-align:end;text-anchor:end"
     inkscape:label="color_code___id"
     data-label="color_code___id"><tspan
       style="font-style:normal;font-variant:normal;font-weight:normal;font-stretch:normal;font-size:10.5833px;font-family:sans-serif;-inkscape-font-specification:sans-serif;text-align:start;text-anchor:start"
       id="tspan1">10205 - A00-R2 </tspan></text><ellipse
     cx="198.28732"
     cy="44.789043"
     fill="#c0392b"
     stroke="#333333"
     stroke-width="0.6167"
     id="circle3"
     inkscape:label="color_badge"
     data-label="color_badge"
     style="fill:#9d2235;fill-opacity:1"
     rx="13.672244"
     ry="13.463234" /><!-- Arrow/triangle pointer on the right --><!-- Weight scale line --><!-- Major tick marks with labels: 800g, 600g, 400g, 200g --><!-- Scale runs left (full/800g) to right (empty/0g-ish) --><!-- 800g tick + label --><!-- 600g --><!-- 400g --><!-- 200g --><!-- Minor tick marks between major ticks (every ~50g, so 3 minor ticks between each major) --><!-- Between 800g and 600g --><!-- Between 600g and 400g --><!-- Between 400g and 200g --><!-- After 200g toward empty --><!-- Before 800g (toward 1000g / full) --><path
     style="fill:#000000;stroke-width:0.0542999"
     d="m 21.13149,74.674511 c -0.0198,-0.01989 -0.0361,-1.081075 -0.0361,-2.358146 v -2.321944 l 0.28507,-0.107433 c 0.15679,-0.05909 1.34239,-0.525108 2.63467,-1.035602 1.29226,-0.510492 2.3613,-0.92817 2.37561,-0.92817 0.0148,0 0.026,1.527186 0.026,3.393746 v 3.393745 h -2.62449 c -1.44347,0 -2.64078,-0.01628 -2.66069,-0.03621 z m 6.19018,0 c -0.041,-0.04109 -0.0506,-9.357685 -0.009,-9.357685 0.0148,0 0.79044,0.301694 1.72401,0.670431 0.93358,0.368735 2.1189,0.835005 2.63407,1.03615 l 0.93668,0.365716 v 3.660794 3.660794 h -2.6245 c -1.44347,0 -2.64078,-0.01628 -2.6607,-0.0362 z M 21.09528,64.372387 v -4.702752 h 2.66069 2.6607 v 3.658911 c 0,3.43779 -0.006,3.660606 -0.095,3.686965 -0.0709,0.02095 -4.76008,1.867791 -5.15848,2.031702 -0.054,0.0222 -0.0679,-0.933931 -0.0679,-4.674826 z m 10.01834,1.510089 c -0.7765,-0.31092 -1.95549,-0.777486 -2.61998,-1.036809 l -1.20816,-0.4715 V 62.0219 59.669635 h 2.66069 2.66068 v 3.393745 c 0,1.866559 -0.0183,3.391645 -0.0407,3.389074 -0.0224,-0.0027 -0.67604,-0.259054 -1.45253,-0.569978 z"
     id="path20"
     inkscape:label="bambu_logo" /></svg>
